<svg version="1.1" xmlns="http://www.w3.org/2000/svg" viewBox="0 -55 511.75512 511" width="1024" height="1022"><path d="m507.589844 274.375-269.414063-148.640625c4.230469-5.339844 7.332031-11.484375 9.121094-18.054687l12.714844 5.972656c1.703125.824218 3.566406 1.261718 5.460937 1.277344 4.433594-.046876 8.53125-2.367188 10.851563-6.144532 2.320312-3.777344 2.542969-8.480468.582031-12.457031l-44.03125-87.976563c-2.902344-5.800781-9.683594-8.515624-15.785156-6.316406l-80.640625 29.355469c-4.878907 1.75-8.21875 6.269531-8.464844 11.445313-.242187 5.179687 2.660156 9.992187 7.355469 12.191406l20.734375 9.726562c-2.613281 3.800782-4.710938 7.933594-6.230469 12.289063l-137.1875-75.734375c-4.101562-2.089844-9.121094-.550782-11.347656 3.480468-2.222656 4.03125-.851563 9.097657 3.101562 11.453126l70.828125 39.09375c-5.59375 3.207031-10.011719 8.125-12.605469 14.027343l-19.625 48.296875-.425781.941406c-5.0625 12.097657-4.78125 25.773438.777344 37.652344s15.875 20.859375 28.40625 24.726563l55.636719 17.066406-12.96875 58.195313-26.796875-4.179688h-.339844c-12.925781-2.109375-26.023437 2.605469-34.636719 12.46875-8.613281 9.863281-11.523437 23.476562-7.691406 36l23.640625 79.617188c.398437 1.414062.941406 2.789062 1.621094 4.09375h-61.695313c-4.714844 0-8.535156 3.820312-8.535156 8.535156 0 4.710937 3.820312 8.53125 8.535156 8.53125h426.664063c4.714843 0 8.535156-3.820313 8.535156-8.53125 0-4.714844-3.820313-8.535156-8.535156-8.535156h-37.121094c.398437-.609376.714844-1.269532.941406-1.960938 5.921875-15.386719-1.652343-32.671875-16.980469-38.742188l-98.476562-37.71875-68.523438-26.792968 12.203126-40.617188 16.382812 11.6875c10.675781 7.742188 24.382812 9.984375 36.96875 6.054688 12.585938-3.933594 22.578125-13.578125 26.949219-26.019532l10.835937-30.464843c1.042969-2.988281 1.597656-6.128907 1.636719-9.292969l179.328125 98.933594c4.101562 2.09375 9.121094.550781 11.347656-3.476563 2.222656-4.03125.851563-9.097656-3.101562-11.457031zm-355.695313-230.441406 67.414063-24.574219 36.863281 73.640625-12.203125-5.71875-69.972656-32.9375-.769532-.425781zm169.554688 340.308594h-197.289063c3.183594-6.6875 3.761719-14.324219 1.621094-21.417969l-13.484375-45.824219 38.402344 6.570312c16.863281 2.902344 33.386719 7.507813 49.320312 13.738282zm-59.304688-204.628907-2.902343 8.191407-18.6875-13.480469h-.085938c-9.824219-7.089844-20.835938-12.378907-32.511719-15.617188l-58.625-16.382812-45.992187-14.167969 13.3125-33.449219c2.09375-4.734375 3-9.914062 2.636718-15.078125l27.484376 15.179688c.238281 18.394531 10.332031 35.25 26.441406 44.136718 16.105468 8.886719 35.746094 8.4375 51.433594-1.171874l49.175781 27.164062c-5.375 3.5-9.472657 8.648438-11.679688 14.675781zm0 0"></path><path d="m486.398438 384.242188h-17.066407c-4.710937 0-8.53125 3.820312-8.53125 8.535156 0 4.710937 3.820313 8.53125 8.53125 8.53125h17.066407c4.714843 0 8.535156-3.820313 8.535156-8.53125 0-4.714844-3.820313-8.535156-8.535156-8.535156zm0 0"></path></svg>