<svg viewBox="0 0 145 165" width="75px" height="90px" xmlns="http://www.w3.org/2000/svg" version="1.1">
    <style>
        :root { --xcolor: #000; }
        @media (prefers-color-scheme: light) { :root { --xcolor: #000; } }
        @media (prefers-color-scheme: dark) { :root { --xcolor: #ddd; } }
        path {
            stroke: var(--xcolor);
        }
    </style>
    <g stroke="null" id="svg_38">
    <path stroke="null" id="svg_1" d="m46.00968,141.57097c2.12245,0.02811 3.87475,-0.16588 5.25954,-0.58444l2.82018,0.67125c0.1944,0.02808 0.38348,0.02808 0.56457,0l3.18235,-0.6049c1.88012,0.5181 3.67237,0.81418 5.3714,0.88565c0.3462,0 0.65511,-0.10719 0.92408,-0.32414c0.25565,-0.22969 0.39945,-0.513 0.42875,-0.84482c0,-0.34709 -0.11185,-0.64059 -0.33821,-0.88562c-0.23968,-0.26035 -0.5406,-0.3956 -0.90277,-0.41093c-1.59518,-0.08676 -3.28088,-0.38283 -5.05449,-0.88564c-0.21038,-0.0587 -0.42076,-0.0638 -0.63115,-0.0204l-3.20366,0.60489l-2.9347,-0.67125c-0.23967,-0.07146 -0.48999,-0.06383 -0.74565,0.0204c-1.18772,0.40327 -2.7536,0.59723 -4.69497,0.58447c-0.36218,0 -0.66311,0.12251 -0.90278,0.36752c-0.27163,0.21693 -0.41277,0.50536 -0.42875,0.86523c0.01598,0.3318 0.14913,0.62785 0.40745,0.88565c0.22369,0.21695 0.51663,0.33434 0.87881,0.34708z" fill="#222"/>
    <path stroke="null" id="svg_2" d="m42.44118,123.44472c0.52729,2.55228 1.82952,3.76971 3.90405,3.65485l0.0213,0c1.00929,0 2.0692,0.35989 3.18235,1.08218l0.02131,0c1.8668,1.1817 3.78421,1.3042 5.75487,0.36752c1.21968,-0.57681 2.44469,-0.82183 3.67768,-0.73506c1.83485,0.13017 3.39275,-0.20929 4.67101,-1.01579c0.34619,-0.21696 0.56456,-0.51302 0.65512,-0.88564c0.07455,-0.39051 0.00798,-0.74273 -0.2024,-1.0592c-0.22636,-0.34711 -0.53527,-0.56151 -0.92408,-0.6483c-0.40744,-0.07146 -0.77495,0 -1.10517,0.21696c-0.79626,0.46197 -1.75229,0.64828 -2.86545,0.56149c-1.76029,-0.13015 -3.49926,0.21696 -5.21427,1.03878l0.02131,-0.02042c-0.99332,0.46196 -1.94137,0.40324 -2.84415,-0.17355c-1.68572,-1.08217 -3.3022,-1.60028 -4.8521,-1.55691c-0.5113,-0.10209 -0.84153,-0.56151 -0.99332,-1.38332c-0.28496,-1.33995 -0.04528,-2.61097 0.72169,-3.80799c1.11316,-1.75853 1.63245,-3.70591 1.55788,-5.83961c-0.02928,-0.40326 -0.1944,-0.73505 -0.49533,-0.99539c-0.28494,-0.26033 -0.63114,-0.38284 -1.03858,-0.36753c-0.42077,0.01531 -0.76696,0.1659 -1.0386,0.45432c-0.27164,0.27308 -0.39946,0.61255 -0.38348,1.01579c0.06126,1.5569 -0.3169,2.98363 -1.12914,4.28273l0.02131,-0.02042c-1.1824,1.84017 -1.55789,3.78757 -1.12381,5.8345z" fill="#222"/>
    <path stroke="null" id="svg_3" d="m34.13776,99.52221c0.63114,0.59215 1.3981,0.88566 2.30088,0.88566s1.66973,-0.29606 2.30088,-0.88566c0.48202,-0.46195 0.78295,-1.00304 0.90278,-1.62323c0.75098,0.41856 1.51262,0.91625 2.27959,1.49307c0.87348,0.6636 1.77626,1.19701 2.70832,1.60027c0.36218,0.15826 0.73767,0.1659 1.12914,0.02042c0.36218,-0.13017 0.63114,-0.37519 0.81224,-0.73505c0.16511,-0.35987 0.1731,-0.71464 0.0213,-1.0592c-0.13581,-0.37518 -0.39147,-0.64063 -0.76696,-0.80141c-0.70837,-0.31649 -1.39811,-0.7274 -2.07719,-1.23276c-1.18772,-0.90861 -2.3861,-1.64366 -3.58981,-2.20517c-0.06125,-0.02808 -0.11185,-0.05104 -0.15712,-0.0638c-0.09055,-0.0434 -0.17311,-0.07912 -0.24767,-0.10719c-4.25822,-1.81721 -8.70287,-1.55689 -13.33926,0.77844c-0.33022,0.15825 -0.56456,0.39561 -0.70038,0.71465c-0.13581,0.31647 -0.14381,0.64062 -0.0213,0.9724c0.55658,1.64367 1.57919,2.82027 3.07051,3.5247c0.36218,0.17355 0.73767,0.20163 1.12914,0.08677c0.37549,-0.13016 0.65512,-0.36753 0.8362,-0.71462c0.19441,-0.35988 0.23435,-0.72231 0.11185,-1.08218c-0.13581,-0.37518 -0.38347,-0.64828 -0.74565,-0.82184c-0.40745,-0.20162 -0.73767,-0.46197 -0.99333,-0.77844c1.43007,-0.57681 2.84415,-0.90862 4.24226,-0.99538c-0.10653,0.31648 -0.15712,0.58447 -0.15712,0.80142c0.00266,0.86522 0.3169,1.60793 0.95072,2.22812z" fill="#222"/>
    <path stroke="null" id="svg_4" d="m77.60688,98.80759c-0.13582,0.35986 -0.10654,0.71974 0.09053,1.08216c0.16512,0.34711 0.44474,0.58447 0.83621,0.71464c0.3755,0.11486 0.75098,0.09445 1.12914,-0.0638c1.35284,-0.64828 2.30887,-1.45735 2.86545,-2.42211c0.51131,0.10209 1.0519,0.20162 1.62447,0.30372c0.39146,0.08678 0.75896,0.02042 1.10517,-0.19396c0.33022,-0.21696 0.5406,-0.51813 0.63113,-0.90862c0.07458,-0.37518 0,-0.7223 -0.22635,-1.03878c-0.22636,-0.33179 -0.53527,-0.54108 -0.92407,-0.62785c-8.3194,-1.64367 -14.06895,-1.99078 -17.24332,-1.03879c-3.7922,1.03879 -5.71759,3.07806 -5.77884,6.12037c0,0.3905 0.13581,0.7274 0.40745,1.01581c0.27164,0.27309 0.61782,0.42623 1.03859,0.4543c0.40744,0.01531 0.75364,-0.11485 1.03857,-0.39049c0.30095,-0.26033 0.45806,-0.58447 0.47404,-0.97241c0.15179,-1.71514 1.3688,-2.89174 3.65638,-3.5247c0.55659,-0.14547 1.20371,-0.24503 1.94137,-0.30372c-0.04528,0.20162 -0.06657,0.41857 -0.06657,0.64827c0,0.88055 0.3169,1.62325 0.94804,2.22814c0.64713,0.59212 1.41409,0.88564 2.30089,0.88564c0.91874,0 1.6937,-0.29607 2.32484,-0.88564c0.61784,-0.6049 0.92409,-1.3476 0.92409,-2.22814c0,-0.14548 -0.00799,-0.2884 -0.02131,-0.43388c0.76696,0.08677 1.5792,0.19396 2.43671,0.32413c-0.22636,0.15823 -0.48202,0.30882 -0.76698,0.45431c-0.36217,0.16078 -0.6125,0.42623 -0.74564,0.80141z" fill="#222"/>
    <path stroke="null" id="svg_5" d="m59.05334,87.38614c-0.40744,-0.08678 -0.77496,-0.02041 -1.10517,0.19398c-0.3462,0.21695 -0.56457,0.513 -0.65511,0.88564c-0.25566,1.11023 -0.72968,2.06225 -1.42208,2.856c-0.27163,0.30373 -0.38348,0.64828 -0.3382,1.03876c0.0293,0.3905 0.20239,0.71465 0.51929,0.97243c0.30093,0.24501 0.6631,0.35222 1.08386,0.32413c0.39147,-0.04339 0.72169,-0.20927 0.99334,-0.4977c1.00929,-1.13831 1.6937,-2.50123 2.05321,-4.08873c0.09055,-0.37519 0.0213,-0.7274 -0.20239,-1.05921c-0.22636,-0.32925 -0.53528,-0.53853 -0.92674,-0.62531z" fill="#222"/>
    <path stroke="null" id="svg_6" d="m113.51291,119.48612c0.01597,-0.3905 -0.11185,-0.72739 -0.38349,-1.0158c-0.28493,-0.2884 -0.63115,-0.44665 -1.0386,-0.47472c-0.40744,-0.0153 -0.75896,0.11485 -1.05988,0.3905c-0.30093,0.26032 -0.45807,0.58447 -0.47403,0.97243c-0.16512,3.61912 -0.09853,6.87837 0.20238,9.77776c0.02929,0.3905 0.2024,0.71465 0.5193,0.97243c0.3169,0.22969 0.67642,0.33179 1.08386,0.30371c0.40744,-0.0434 0.74566,-0.21695 1.01461,-0.51811c0.23969,-0.30373 0.34622,-0.64827 0.31692,-1.03876c-0.28494,-2.78455 -0.3462,-5.90853 -0.18108,-9.36944z" fill="#222"/>
    <path stroke="null" id="svg_7" d="m116.9882,114.83588c0.01598,-0.3905 -0.11185,-0.72739 -0.38349,-1.0158c-0.28493,-0.28839 -0.63113,-0.44664 -1.03859,-0.47472c-0.40745,-0.01534 -0.75365,0.11485 -1.03859,0.39049c-0.31689,0.26034 -0.48201,0.58447 -0.49531,0.97243c-0.16513,3.61913 -0.09854,6.8784 0.20238,9.77776c0.0293,0.3905 0.2024,0.70698 0.51928,0.952c0.33022,0.24502 0.6924,0.35222 1.08389,0.32413c0.40744,-0.04338 0.74565,-0.21694 1.01462,-0.5181c0.25566,-0.30373 0.36217,-0.64828 0.31691,-1.0388c-0.28493,-2.78707 -0.34621,-5.9085 -0.18109,-9.36941z" fill="#222"/>
    <path stroke="null" id="svg_8" d="m120.28506,107.07185c0.01598,-0.3905 -0.11184,-0.7274 -0.38348,-1.01579c-0.28493,-0.28841 -0.63114,-0.44666 -1.0386,-0.47474c-0.40744,-0.0153 -0.75098,0.11485 -1.03859,0.3905c-0.31689,0.26035 -0.48201,0.58447 -0.49532,0.97242c-0.1651,3.61912 -0.09853,6.87839 0.20238,9.77777c0.04528,0.3905 0.22636,0.70699 0.5406,0.952c0.3169,0.245 0.67641,0.3522 1.08386,0.32413c0.39149,-0.0434 0.72169,-0.21695 0.99332,-0.51811c0.25566,-0.30373 0.36218,-0.64828 0.3169,-1.03877c-0.28761,-2.78708 -0.34886,-5.90852 -0.18108,-9.36942z" fill="#222"/>
    <path stroke="null" id="svg_9" d="m24.13797,90.89041c0.28494,0.11486 0.58054,0.15059 0.88148,0.1072c2.16773,-0.3471 3.93333,-0.25267 5.30481,0.28075c2.40741,1.06685 4.70829,1.67173 6.90532,1.81722c2.69234,0.20161 5.22758,0.7223 7.60569,1.55688c0.33023,0.11485 0.66843,0.1072 1.01463,-0.02042c0.3462,-0.13017 0.60185,-0.33945 0.76696,-0.62785c0.1811,-0.31649 0.23435,-0.64062 0.15712,-0.97242s-0.24766,-0.61255 -0.51929,-0.84481c-1.74429,-1.29656 -3.55785,-2.90448 -5.43797,-4.8238c-2.28757,-2.33533 -5.30481,-3.23629 -9.04908,-2.70286c-3.64039,0.50535 -6.35671,1.86061 -8.14895,4.06577c-0.1944,0.22971 -0.30892,0.49004 -0.33821,0.77845c-0.01598,0.28841 0.06125,0.5615 0.22636,0.82183c0.15179,0.24757 0.36217,0.43644 0.63114,0.56405zm8.05842,-3.43791c2.67903,-0.37518 4.83611,0.24503 6.47655,1.86061c0.40745,0.43134 0.82022,0.8448 1.24098,1.23276c-0.79624,-0.11487 -1.61114,-0.20164 -2.43669,-0.26033l0,-0.02042c-1.88012,-0.13017 -3.85878,-0.64828 -5.93597,-1.55689l-0.02131,0c-0.61782,-0.27309 -1.29424,-0.47472 -2.03192,-0.6049c0.81223,-0.30626 1.71502,-0.52065 2.70834,-0.65083z" fill="#222"/>
    <path stroke="null" id="svg_10" d="m31.09122,81.52612c-2.60181,0.21693 -5.00389,1.06683 -7.19825,2.55227c-0.3462,0.21694 -0.5486,0.51811 -0.60984,0.90862c-0.07456,0.39049 0,0.74271 0.22636,1.05918c0.22635,0.31649 0.54059,0.51302 0.94805,0.58448c0.40745,0.05869 0.77494,-0.02042 1.10517,-0.23736c1.78958,-1.18171 3.72296,-1.86827 5.80015,-2.05457c0.39146,-0.0434 0.72169,-0.20929 0.99331,-0.49771c0.25566,-0.30372 0.3675,-0.64827 0.33822,-1.03877c-0.04528,-0.3905 -0.21838,-0.71464 -0.5193,-0.97242c-0.31691,-0.24757 -0.67908,-0.34711 -1.08387,-0.30371z" fill="#222"/>
    <path stroke="null" id="svg_11" d="m3.84812,55.15854c4.18366,-0.35987 7.81608,-1.95505 10.8999,-4.78042c0.28495,-0.27309 0.43675,-0.59723 0.45006,-0.97242c0.01598,-0.3905 -0.11984,-0.7274 -0.40745,-1.01581c-0.28495,-0.28841 -0.63114,-0.43133 -1.03859,-0.43133c-0.40745,-0.01532 -0.75099,0.11485 -1.0386,0.3905c-2.57251,2.35065 -5.61905,3.68549 -9.13962,4.00198c-0.40745,0.02806 -0.73767,0.19397 -0.99332,0.49768c-0.25565,0.28841 -0.3675,0.62786 -0.33821,1.01581c0.04527,0.3905 0.22636,0.70698 0.5406,0.952c0.30625,0.25523 0.66044,0.37008 1.06523,0.34201z" fill="#222"/>
    <path stroke="null" id="svg_12" d="m35.10711,64.52285c-0.09055,-0.34711 -0.28495,-0.62021 -0.58588,-0.82184c-0.3169,-0.20163 -0.65511,-0.28076 -1.01462,-0.23736c-0.3755,0.04338 -0.68442,0.19397 -0.92408,0.4543c-4.34879,4.65791 -6.90532,9.14226 -7.67228,13.45306c-0.85751,-1.06685 -1.46735,-2.32767 -1.82686,-3.78502c-0.10652,-0.37519 -0.33022,-0.6636 -0.67642,-0.86523c-0.34619,-0.21693 -0.7137,-0.27309 -1.10516,-0.17355c-0.39148,0.08678 -0.6924,0.29607 -0.90278,0.62786c-0.22636,0.33179 -0.28494,0.68401 -0.18109,1.05919c0.79892,3.20056 2.50594,5.64565 5.12373,7.3327c0.30092,0.20164 0.63914,0.28075 1.01463,0.23737c0.36217,-0.05871 0.66311,-0.2246 0.90278,-0.49769s0.36217,-0.58447 0.36217,-0.92904c0,-2.86876 0.92674,-5.82685 2.77491,-8.86916c0.01598,2.35065 0.6844,4.65791 2.00795,6.92178c0.1944,0.3318 0.49,0.5564 0.88148,0.67124c0.39146,0.1021 0.76696,0.05871 1.12914,-0.13016c0.34619,-0.20163 0.58054,-0.48238 0.70038,-0.8448c0.10653,-0.37519 0.06125,-0.73507 -0.13581,-1.08217c-2.13577,-3.70591 -2.12779,-7.54964 0.0213,-11.52864c0.15979,-0.31393 0.19707,-0.64573 0.10653,-0.99283z" fill="#222"/>
    <path stroke="null" id="svg_13" d="m89.43088,143.69194c-0.42078,0 -0.77496,0.1378 -1.05991,0.41092l-12.18616,11.29126c-7.1157,6.12802 -14.41513,8.64458 -21.89301,7.54962c-7.4033,-1.15361 -13.09159,-5.55884 -17.06221,-13.21568l-4.55916,-8.86916l-0.02131,-0.02042c-2.79887,-5.11987 -4.52986,-10.49751 -5.19031,-16.13551c-0.09053,-0.66359 -0.18108,-1.31187 -0.27162,-1.94737l0,-0.02042c-0.40745,-2.43742 -1.02262,-4.85188 -1.85083,-7.24593c-0.0293,-0.08677 -0.06126,-0.1812 -0.09055,-0.28075c-0.36218,-1.03877 -0.68441,-2.0699 -0.96936,-3.09336c-0.01597,-0.08677 -0.03728,-0.15824 -0.06657,-0.21694c-1.18772,-4.45628 -1.66175,-8.98401 -1.42207,-13.58321c0.3169,-5.99786 -0.11984,-12.35047 -1.31023,-19.0553c-0.06125,-0.3905 -0.25566,-0.69167 -0.58588,-0.90862c-0.33022,-0.22971 -0.70038,-0.30884 -1.10517,-0.23736c-0.40745,0.05871 -0.72169,0.24501 -0.94805,0.56149c-0.23968,0.31648 -0.32223,0.67125 -0.24767,1.0592c1.12914,6.48788 1.54191,12.63889 1.24099,18.45041c-0.25566,4.80084 0.23435,9.53276 1.46734,14.19066l-0.56457,2.33534c-1.18773,-3.85139 -2.85746,-7.49092 -5.00921,-10.92374c-3.08382,-4.96162 -5.39535,-9.97174 -6.92928,-15.03291c-1.53392,-5.0331 -2.34616,-8.39955 -2.4367,-10.10193c-0.01598,-0.31648 -0.11984,-0.59723 -0.3169,-0.8448c-0.1944,-0.22971 -0.45006,-0.39051 -0.76696,-0.47473c-0.30093,-0.08678 -0.60185,-0.07146 -0.90278,0.0434c-0.11984,0.02806 -0.22636,0.07912 -0.3169,0.15058c0.28495,-2.20517 0.84952,-4.47669 1.69371,-6.81458c0.10652,-0.28842 0.10652,-0.57682 0,-0.86523c-0.09055,-0.30373 -0.27163,-0.54109 -0.5406,-0.71463c-0.25566,-0.18633 -0.5406,-0.28075 -0.85751,-0.28075l-0.66044,0c0.64712,-1.29655 1.52593,-2.76923 2.64175,-4.4129c0.21038,-0.31647 0.28495,-0.6636 0.22636,-1.03878c-0.09054,-0.37518 -0.30093,-0.67125 -0.63115,-0.88564c-0.25565,-0.17356 -0.52729,-0.26033 -0.81223,-0.26033c1.0093,-1.26849 1.95468,-2.74625 2.84414,-4.43331c0.16511,-0.34711 0.18908,-0.70697 0.06658,-1.08217c-0.11984,-0.35987 -0.36217,-0.63551 -0.72169,-0.82183c-0.37549,-0.17355 -0.75897,-0.19397 -1.15044,-0.0638c-0.37549,0.11486 -0.65511,0.34711 -0.8362,0.69167c-1.26496,2.37873 -2.65507,4.31846 -4.17568,5.8192c-0.23968,0.22971 -0.37549,0.51301 -0.40745,0.8448c-0.04527,0.31649 0.0213,0.6202 0.20239,0.90862c0.1944,0.27309 0.45005,0.46197 0.76696,0.5615c0.28495,0.1021 0.57256,0.18122 0.8575,0.23737c-1.15843,1.87337 -1.98664,3.50426 -2.48197,4.88761c-0.10652,0.30372 -0.10652,0.59723 0,0.88564c0.09055,0.28841 0.27163,0.52577 0.5406,0.71464c0.25566,0.18632 0.5406,0.28075 0.85751,0.28075l0.85751,0c-0.99332,3.25926 -1.48332,6.40877 -1.46735,9.45363c0,0.35988 0.13582,0.6789 0.40745,0.952s0.59387,0.41857 0.96935,0.43134c0.39147,0.02808 0.73767,-0.07912 1.03859,-0.32414c0.19441,-0.15823 0.38348,-0.30883 0.56457,-0.4543c0.42076,1.94738 1.12914,4.55071 2.12246,7.80742l0,-0.02043c1.5792,5.3062 3.9866,10.53326 7.22222,15.6812c3.03855,4.91824 5.06248,10.25251 6.07178,16.00533c0.06125,0.3165 0.22636,0.59214 0.49533,0.82183c0.27164,0.22971 0.58055,0.34711 0.92408,0.34711c0.3462,0.01533 0.6631,-0.07912 0.94804,-0.28075c0.27164,-0.20164 0.45007,-0.46962 0.54061,-0.80141l0.8362,-3.4609c0.5406,1.75852 0.95604,3.54002 1.24098,5.34193c0.10653,0.60489 0.1944,1.21743 0.27164,1.83762c0.69239,5.9698 2.52724,11.67414 5.5072,17.11048l0,-0.0204l4.55917,8.86914c4.45263,8.59351 10.87061,13.51944 19.25125,14.77261c8.3194,1.29651 16.42308,-1.44969 24.3084,-8.24133c0.01598,-0.0153 0.0293,-0.02809 0.04528,-0.04338l12.23143,-11.33467c0.28495,-0.28841 0.43674,-0.62019 0.45272,-0.99539c0.01598,-0.39047 -0.11983,-0.71974 -0.40744,-0.99538c-0.28496,-0.28584 -0.63116,-0.43898 -1.03858,-0.45175z" fill="#222"/>
    <path stroke="null" id="svg_14" d="m5.72291,50.24795c2.87344,-0.14548 5.61906,-1.62835 8.23684,-4.45627c0.27163,-0.28841 0.39147,-0.62786 0.36218,-1.01581c-0.01597,-0.3905 -0.17309,-0.71464 -0.47402,-0.97241c-0.3169,-0.26033 -0.67642,-0.38285 -1.08386,-0.36753c-0.40745,0.01531 -0.74566,0.18121 -1.01463,0.49769c-1.99996,2.14901 -4.07715,3.31031 -6.2289,3.4813c-0.40745,0.01532 -0.73766,0.18122 -0.99332,0.4977c-0.27163,0.2731 -0.39946,0.61255 -0.38348,1.01581c0.01597,0.3905 0.18907,0.71463 0.5193,0.97242c0.29826,0.24501 0.65245,0.36243 1.05989,0.3471z" fill="#222"/>
    <path stroke="null" id="svg_15" d="m8.20488,44.7963c0.36217,0.15824 0.73767,0.17355 1.12914,0.04338c0.37549,-0.14548 0.64713,-0.3905 0.81223,-0.73505c1.12914,-2.30727 3.38475,-3.98666 6.7695,-5.04075c4.21295,-1.35526 7.23819,-3.35369 9.07304,-5.99275c0.22636,-0.33179 0.30892,-0.68401 0.24766,-1.05919c-0.09054,-0.3905 -0.30092,-0.69167 -0.63114,-0.90861c-0.34619,-0.2297 -0.7137,-0.30372 -1.10517,-0.21694c-0.40745,0.07146 -0.72169,0.27309 -0.94805,0.60489c-1.56587,2.14902 -4.08513,3.77737 -7.56042,4.88761c-4.31948,1.35526 -7.16097,3.54 -8.53244,6.55424c-0.16511,0.34711 -0.18109,0.70698 -0.04527,1.08218c0.1518,0.36242 0.41544,0.62275 0.79093,0.781z" fill="#222"/>
    <path stroke="null" id="svg_16" d="m11.77072,35.60299c1.97066,0.13016 4.21296,-0.26544 6.72689,-1.18937c0.37549,-0.13017 0.64713,-0.37518 0.81224,-0.73505c0.16511,-0.35987 0.17309,-0.71975 0.0213,-1.08216c-0.13582,-0.35987 -0.39147,-0.6202 -0.76696,-0.77844c-0.37549,-0.15824 -0.75098,-0.17356 -1.12914,-0.04339c-2.04523,0.76313 -3.86676,1.09492 -5.46193,0.99539c-0.40745,-0.01532 -0.75897,0.10719 -1.05989,0.36753c-0.31691,0.24501 -0.48202,0.5615 -0.49533,0.952c-0.02929,0.3905 0.09054,0.7274 0.36217,1.0158c0.25299,0.30372 0.58321,0.46962 0.99066,0.4977z" fill="#222"/>
    <path stroke="null" id="svg_17" d="m15.01966,30.84554c4.04785,0.35987 8.36467,-0.75037 12.95578,-3.33072c0.36218,-0.20163 0.58588,-0.49003 0.67642,-0.86522c0.10652,-0.37519 0.06124,-0.7274 -0.13581,-1.0592c-0.21039,-0.34711 -0.51131,-0.56916 -0.90278,-0.67125c-0.40745,-0.08678 -0.78295,-0.02807 -1.12914,0.17356c-3.97329,2.22048 -7.70423,3.20055 -11.1955,2.94278c-0.40745,-0.04339 -0.76696,0.07146 -1.08386,0.34711c-0.31691,0.24502 -0.49001,0.5615 -0.5193,0.952c-0.04527,0.37519 0.06658,0.71464 0.33821,1.01581c0.26098,0.30117 0.5912,0.46707 0.99599,0.49514z" fill="#222"/>
    <path stroke="null" id="svg_18" d="m130.86806,32.74954c-0.22635,-0.31648 -0.53526,-0.51811 -0.92409,-0.60489c-0.40744,-0.08678 -0.77495,-0.01531 -1.10516,0.21695c-0.34618,0.20163 -0.56454,0.49769 -0.65512,0.88564c-0.09053,0.37518 -0.01598,0.7274 0.22638,1.0592c9.69087,14.26212 10.48711,29.84889 2.39142,46.76537c-2.49794,5.19135 -4.79883,10.31886 -6.90531,15.38004l0,-0.02042c-2.22633,5.25004 -3.0705,9.50213 -2.52725,12.76138c0.07458,0.3752 0.27697,0.68401 0.60986,0.92903c0.3169,0.22971 0.67641,0.31138 1.08387,0.23737c0.40744,-0.0587 0.72968,-0.23737 0.96935,-0.54109c0.23969,-0.3318 0.33022,-0.68399 0.27162,-1.0592c-0.42075,-2.86875 0.3542,-6.6257 2.32484,-11.2683c2.10648,-5.01777 4.39405,-10.09426 6.86005,-15.22688c8.57506,-17.91189 7.70158,-34.41746 -2.62045,-49.51419z" fill="#222"/>
    <path stroke="null" id="svg_19" d="m117.96021,24.29129c-0.39145,0.11485 -0.67641,0.34711 -0.8575,0.69167c-0.19439,0.34711 -0.22636,0.70698 -0.09055,1.08217c0.11984,0.35987 0.36749,0.63551 0.74565,0.82183c5.82412,2.82537 11.24079,4.42055 16.24998,4.78042c0.40746,0.02807 0.76698,-0.08678 1.08388,-0.34711c0.31691,-0.24502 0.49001,-0.5615 0.51929,-0.952c0.01601,-0.3905 -0.10652,-0.7274 -0.36215,-1.0158c-0.27164,-0.30372 -0.60986,-0.46962 -1.01465,-0.4977c-4.6497,-0.35987 -9.69619,-1.86061 -15.1448,-4.49966c-0.37817,-0.17101 -0.75366,-0.19397 -1.12915,-0.06381z" fill="#222"/>
    <path stroke="null" id="svg_20" d="m86.70123,89.65768c0.07457,-0.37518 0.00798,-0.71465 -0.20239,-1.01582c-0.21038,-0.31648 -0.49533,-0.51811 -0.85749,-0.60489c-4.09314,-1.06685 -7.66697,-1.97546 -10.7215,-2.72584c-3.38475,-0.82183 -6.46324,-0.72229 -9.23016,0.30373c-3.0998,1.12556 -4.86009,2.58035 -5.28085,4.36949c-0.39147,1.21233 -1.03061,2.39403 -1.9174,3.54766c-0.21038,0.26034 -0.30892,0.55641 -0.29294,0.88564c0.01598,0.33179 0.13582,0.6202 0.36217,0.86522c0.21038,0.24503 0.49001,0.41092 0.83619,0.4977c0.33023,0.0587 0.65512,0.00765 0.97203,-0.15059c3.14507,-1.55688 5.52851,-2.50888 7.15564,-2.85599l0.02131,0c1.5792,-0.31649 3.01725,-0.46962 4.31149,-0.45431l0.02131,0c1.45935,0.02807 3.53655,-0.27312 6.2289,-0.90862c2.37811,-0.57682 4.72426,-0.77079 7.04113,-0.58447c0.37548,0.0153 0.7137,-0.08678 1.01462,-0.30373c0.29827,-0.22971 0.47668,-0.51812 0.53794,-0.86522zm-14.78265,-0.17101l-0.0213,0c-1.48865,-0.01533 -3.14507,0.15824 -4.96394,0.5181c-1.0093,0.20164 -2.29556,0.62021 -3.85878,1.25573c0.06126,-0.17356 0.11984,-0.33181 0.18109,-0.47473l0,-0.02042c0.39147,-0.9673 1.55789,-1.8019 3.49926,-2.50889c2.24231,-0.79375 4.72428,-0.85757 7.44858,-0.19396c0.8868,0.21693 1.82154,0.44665 2.79887,0.69167c-2.18903,0.48492 -3.88005,0.7325 -5.08377,0.7325z" fill="#222"/>
    <path stroke="null" id="svg_21" d="m111.57153,112.30658c0.25565,-0.30372 0.37551,-0.64827 0.36216,-1.03878c-0.02929,-0.3905 -0.20237,-0.70698 -0.51929,-0.95199c-0.30093,-0.26032 -0.65511,-0.38285 -1.0599,-0.36754c-2.48196,0.17355 -4.47659,1.11024 -5.98122,2.81261c-0.84151,0.92393 -1.78159,1.57986 -2.82018,1.96781c-0.84152,-1.19701 -1.13711,-2.65948 -0.88147,-4.38992c0.40746,-2.68243 0.27961,-5.79623 -0.38347,-9.34388c-0.69241,-3.50428 -1.85882,-6.87074 -3.49928,-10.10191c-1.32353,-2.65437 -1.58717,-5.52313 -0.79091,-8.60883c0.8868,-3.59106 1.05457,-7.4399 0.49531,-11.55162c-0.04526,-0.3905 -0.22636,-0.70698 -0.54058,-0.952c-0.33023,-0.22971 -0.6924,-0.32413 -1.08388,-0.28075c-0.40743,0.05871 -0.73766,0.23737 -0.99332,0.54108c-0.25565,0.31647 -0.35418,0.67126 -0.29293,1.0592c0.51131,3.73398 0.36217,7.23826 -0.45007,10.51283c-0.96402,3.7646 -0.62315,7.26888 1.01463,10.51283l0,0.02043c1.52061,2.98617 2.59648,6.10759 3.22763,9.36686c0.60187,3.20054 0.72968,6.01315 0.38349,8.43526c-0.48202,3.05763 0.26364,5.51548 2.2343,7.37609c0.18108,0.18631 0.39946,0.31647 0.65511,0.39049c0.23967,0.05871 0.48201,0.05871 0.72169,0c1.99996,-0.41856 3.73894,-1.45735 5.21429,-3.11378l0.02129,0c0.99332,-1.11024 2.30888,-1.71512 3.94932,-1.81721c0.40746,-0.03062 0.74831,-0.18886 1.01729,-0.47727z" fill="#222"/>
    <path stroke="null" id="svg_22" d="m92.50137,79.60169c-0.19441,-0.3471 -0.49001,-0.57681 -0.88147,-0.69167l-1.91742,-0.56149c-0.39146,-0.11486 -0.76694,-0.07912 -1.12914,0.1072c-0.36216,0.17353 -0.60185,0.45429 -0.72169,0.84479c-0.11982,0.35987 -0.08254,0.71465 0.11186,1.0592c0.1944,0.34712 0.49001,0.57684 0.88147,0.69167l1.91741,0.56151c0.37549,0.11485 0.74564,0.08678 1.10516,-0.08677c0.36218,-0.18633 0.60185,-0.46963 0.72169,-0.84481c0.12251,-0.37519 0.09321,-0.73505 -0.08787,-1.07962z" fill="#222"/>
    <path stroke="null" id="svg_23" d="m89.45483,87.79707c0.3462,-0.21695 0.57256,-0.51301 0.67641,-0.88564c0.07457,-0.3905 0.01598,-0.74271 -0.18108,-1.0592c-0.22636,-0.33179 -0.53528,-0.54109 -0.92407,-0.62785c-3.98661,-0.89331 -7.86935,-2.09798 -11.64557,-3.61148c-0.37549,-0.14547 -0.751,-0.14547 -1.12914,0c-0.37548,0.14548 -0.63913,0.40326 -0.79092,0.77845c-0.16512,0.35987 -0.16512,0.71973 0,1.08215c0.15179,0.35989 0.41277,0.61255 0.79092,0.75803c3.91203,1.5722 7.94391,2.82027 12.09828,3.74165c0.38881,0.08421 0.75898,0.02807 1.10517,-0.17611z" fill="#222"/>
    <path stroke="null" id="svg_24" d="m90.7624,82.17438c-2.6178,-0.60488 -4.93465,-1.42672 -6.95059,-2.46549c-0.36218,-0.20162 -0.73767,-0.24501 -1.12914,-0.13017c-0.39147,0.11487 -0.68441,0.34712 -0.88148,0.69167c-0.19441,0.34711 -0.23434,0.70698 -0.11185,1.08217c0.10651,0.35986 0.33821,0.63552 0.70037,0.82182c2.24231,1.18171 4.79885,2.10564 7.67229,2.76923c0.40746,0.07147 0.78294,0.01532 1.12914,-0.17355c0.34619,-0.21694 0.57256,-0.51302 0.67641,-0.88564c0.07458,-0.37518 0.01599,-0.73506 -0.18108,-1.08216c-0.2237,-0.3318 -0.53262,-0.54108 -0.92408,-0.62788z" fill="#222"/>
    <path stroke="null" id="svg_25" d="m36.6863,77.28678c0.07457,0.37518 0.29295,0.67125 0.65512,0.88565c0.33022,0.20162 0.70039,0.26032 1.10517,0.17354c0.39147,-0.10208 0.70039,-0.30882 0.92408,-0.62786c1.15842,-1.8019 1.66174,-3.69059 1.51261,-5.66605c-0.21037,-2.69776 -0.3169,-5.32915 -0.3169,-7.8942c0,-0.39051 -0.14381,-0.71975 -0.42875,-0.99539c-0.30092,-0.2731 -0.64713,-0.41092 -1.0386,-0.41092c-0.40745,0 -0.75098,0.13781 -1.03859,0.41092c-0.30093,0.27309 -0.45007,0.60488 -0.45007,0.99539c0,2.62374 0.10653,5.32916 0.31692,8.11114l0.0213,0c0.09055,1.37057 -0.27163,2.6901 -1.08387,3.95858c-0.2237,0.31648 -0.28228,0.66869 -0.17843,1.0592z" fill="#222"/>
    <path stroke="null" id="svg_26" d="m44.08961,76.80951c-0.15179,-0.35988 -0.40745,-0.62021 -0.76697,-0.77844c-0.37548,-0.17356 -0.75364,-0.18633 -1.12913,-0.0434c-0.39147,0.13018 -0.6631,0.3752 -0.81223,0.73506c-0.18108,0.35988 -0.20239,0.7223 -0.06657,1.08217c1.23299,3.17248 3.06252,6.01317 5.48324,8.52205c0.22635,0.22971 0.50331,0.37519 0.83619,0.43134c0.31691,0.05869 0.61784,0.01531 0.90278,-0.13017c10.36729,-4.85953 16.51363,-12.12843 18.43903,-21.8041c1.31023,3.17249 1.29424,6.45216 -0.04527,9.84158c-0.15179,0.35986 -0.14381,0.72229 0.0213,1.08215c0.16511,0.35988 0.43674,0.6049 0.81223,0.73506c0.3755,0.14293 0.75897,0.13783 1.15044,-0.02042c0.36217,-0.15823 0.61783,-0.41856 0.76696,-0.77844c2.25561,-5.62267 1.45137,-11.00287 -2.4154,-16.13549c-0.1944,-0.24502 -0.43674,-0.41091 -0.72169,-0.49769c-0.30092,-0.10209 -0.59386,-0.1072 -0.88148,-0.02042c-0.30092,0.07146 -0.54858,0.22971 -0.74564,0.47472c-0.1944,0.2297 -0.30893,0.49004 -0.33821,0.77844c-0.72169,10.45413 -6.17031,18.22837 -16.34054,23.31762c-1.80022,-2.03162 -3.18501,-4.29549 -4.14904,-6.79161z" fill="#222"/>
    <path stroke="null" id="svg_27" d="m56.77376,74.79831c2.55654,-3.15717 4.46861,-7.18976 5.73358,-12.09015c0.15179,-0.6202 0.30092,-1.25572 0.45005,-1.90399c0.07457,-0.39049 -0.00798,-0.73506 -0.24765,-1.03878c-0.22638,-0.3471 -0.53528,-0.55639 -0.92409,-0.62785c-0.40745,-0.07147 -0.77495,0 -1.10517,0.21694c-0.34621,0.21693 -0.55658,0.5181 -0.63115,0.9086c-0.13582,0.59214 -0.27164,1.18171 -0.40745,1.77383c-1.14246,4.47159 -2.88144,8.14687 -5.21427,11.03095c-0.23968,0.31648 -0.33821,0.66358 -0.29294,1.03876c0.06124,0.3905 0.24767,0.70699 0.56456,0.95201c0.31691,0.24502 0.67643,0.33945 1.08388,0.28075c0.40477,-0.0587 0.735,-0.23737 0.99065,-0.54108z" fill="#222"/>
    <path stroke="null" id="svg_28" d="m89.27373,76.96264c0.25565,0.30373 0.58589,0.48238 0.99333,0.54109c0.39146,0.04338 0.75365,-0.05106 1.08386,-0.28075c0.33023,-0.24503 0.51929,-0.55639 0.56458,-0.92902c0.76694,-5.56652 -0.45006,-12.06973 -3.65639,-19.50961c-0.15179,-0.3318 -0.39146,-0.56916 -0.72169,-0.71464c-0.3169,-0.17356 -0.65511,-0.20929 -1.01462,-0.1072c-0.36218,0.08677 -0.63914,0.28074 -0.8362,0.58447c-0.22636,0.27309 -0.30892,0.59213 -0.24767,0.95199c0.55659,4.54306 -0.06657,8.37148 -1.87214,11.48525c1.14245,-5.10455 -0.22635,-8.89724 -4.10642,-11.37805c-4.4846,-3.02699 -7.81608,-6.68441 -9.99714,-10.96712c-0.1651,-0.34711 -0.44473,-0.58447 -0.8362,-0.71465c-0.39148,-0.13016 -0.76696,-0.1072 -1.12913,0.06381c-0.3755,0.15825 -0.62316,0.43134 -0.74567,0.82183c-0.13582,0.35987 -0.11983,0.7223 0.04528,1.08216c2.37811,4.70131 6.03449,8.71093 10.96913,12.02634c3.94133,2.82537 4.12243,7.69256 0.5406,14.60158c-0.15179,0.28841 -0.19439,0.59213 -0.1358,0.90861c0.07456,0.31649 0.23435,0.57681 0.47402,0.77846c0.27164,0.21693 0.57255,0.33179 0.90278,0.3471c0.33022,0.02807 0.63114,-0.05871 0.90278,-0.26032c4.12241,-2.69777 6.68694,-6.35263 7.69623,-10.96715c0.97736,3.86415 1.25699,7.39651 0.8362,10.59961c-0.04792,0.37263 0.05061,0.71719 0.29027,1.03622z" fill="#222"/>
    <path stroke="null" id="svg_29" d="m75.82264,69.56359c0.15179,0.34711 0.41276,0.59212 0.79091,0.73505c0.3755,0.15825 0.75099,0.15825 1.12914,0c0.3755,-0.14547 0.63913,-0.3905 0.79093,-0.73505c1.64044,-3.53235 0.44472,-6.91412 -3.58981,-10.1453c-3.28089,-2.62374 -6.2076,-6.04124 -8.78012,-10.2525c-0.21037,-0.34711 -0.5113,-0.5615 -0.90276,-0.64827c-0.39148,-0.10209 -0.75897,-0.05105 -1.10518,0.15058c-0.36218,0.18632 -0.59386,0.47472 -0.70039,0.86522c-0.09054,0.37519 -0.03728,0.73505 0.15712,1.08217c2.76958,4.49966 5.912,8.16217 9.43523,10.98755c2.76956,2.20516 3.69365,4.492 2.77492,6.85797c-0.16512,0.35987 -0.16512,0.7274 0,1.10258z" fill="#222"/>
    <path stroke="null" id="svg_30" d="m18.85712,26.71341c2.12246,0.07146 4.41535,-0.64063 6.88401,-2.14137l-0.02131,0c3.9866,-2.39403 8.13298,-4.37715 12.43649,-5.94936c0.39147,-0.14548 0.66311,-0.3905 0.81224,-0.73505c0.16511,-0.35987 0.18109,-0.7274 0.04527,-1.10259c-0.15179,-0.35987 -0.40745,-0.6202 -0.76696,-0.77844c-0.37549,-0.15824 -0.75365,-0.1659 -1.12913,-0.02042c-4.4846,1.62835 -8.80941,3.69825 -12.97709,6.20714c-1.88012,1.13831 -3.6191,1.70237 -5.21427,1.68705c-0.40745,0 -0.75364,0.13783 -1.03859,0.41092c-0.30093,0.26033 -0.45805,0.58447 -0.47402,0.97242c-0.01598,0.3905 0.11984,0.7274 0.40745,1.01581c0.28495,0.29096 0.63114,0.43389 1.03593,0.43389z" fill="#222"/>
    <path stroke="null" id="svg_31" d="m30.54796,15.07757c4.1224,0.57681 8.59902,-0.0587 13.42981,-1.904l0.0213,0c4.42334,-1.68705 9.48582,-2.62374 15.19009,-2.81261c0.40745,-0.01531 0.75098,-0.15824 1.03859,-0.43133c0.27164,-0.30372 0.39947,-0.64062 0.38348,-1.01581c0,-0.3905 -0.15178,-0.72229 -0.45005,-0.99539c-0.30093,-0.26034 -0.65512,-0.3905 -1.05991,-0.3905c-6.07976,0.20163 -11.48044,1.21233 -16.20472,3.02955c-4.30349,1.62835 -8.28211,2.20516 -11.93849,1.73044c-0.40744,-0.0587 -0.77495,0.03573 -1.10517,0.28075c-0.33022,0.2297 -0.5193,0.54108 -0.56457,0.92902c-0.06125,0.37519 0.03728,0.71975 0.29294,1.03878c0.23701,0.31648 0.56191,0.49769 0.9667,0.54108z" fill="#222"/>
    <path stroke="null" id="svg_32" d="m51.3571,5.27938c8.59103,2.30726 17.6188,3.43281 27.08331,3.37411c0.40746,0 0.75365,-0.14293 1.03859,-0.43134c0.28496,-0.27309 0.42876,-0.60489 0.42876,-0.99539s-0.1518,-0.71974 -0.45007,-0.99539c-0.28493,-0.2731 -0.63114,-0.41092 -1.0386,-0.41092c-9.16357,0.0587 -17.91171,-1.03112 -26.2471,-3.26692c-0.39147,-0.11485 -0.76697,-0.07146 -1.12914,0.13017c-0.3462,0.18632 -0.58056,0.46962 -0.70039,0.84481c-0.11985,0.35987 -0.07457,0.71463 0.13581,1.05919c0.1944,0.34456 0.48734,0.57426 0.87881,0.69167z" fill="#222"/>
    <path stroke="null" id="svg_33" d="m110.01364,16.1138c-0.40746,0.08677 -0.70838,0.29606 -0.90278,0.62786c-0.2104,0.3318 -0.27164,0.69167 -0.18108,1.08217c0.10652,0.37518 0.33022,0.66359 0.6764,0.86522c6.36472,3.67783 13.12091,6.49554 20.26854,8.45825c0.39149,0.10209 0.75899,0.0587 1.10518,-0.13017c0.3622,-0.20163 0.60185,-0.48238 0.72171,-0.8448c0.10649,-0.37519 0.06122,-0.73506 -0.13583,-1.08217c-0.21039,-0.34711 -0.50333,-0.56916 -0.88147,-0.67125c-6.90533,-1.88869 -13.42181,-4.60686 -19.54418,-8.15453c-0.35686,-0.19908 -0.73501,-0.25013 -1.12649,-0.15059z" fill="#222"/>
    <path stroke="null" id="svg_34" d="m88.55206,6.7061c-0.11983,0.37518 -0.07457,0.73506 0.13582,1.08216c0.1944,0.3318 0.48998,0.5564 0.88146,0.67125c0.39147,0.10209 0.76696,0.0587 1.12914,-0.13017c2.34616,-1.25572 4.78551,-1.72278 7.31274,-1.4063c0.39149,0.0587 0.75365,-0.03573 1.08388,-0.28075c0.3169,-0.24502 0.50333,-0.5564 0.56458,-0.92903c0.06125,-0.3905 -0.0373,-0.74271 -0.29295,-1.05919c-0.25565,-0.30372 -0.58055,-0.47473 -0.96936,-0.51812c-3.14507,-0.40326 -6.18362,0.17356 -9.1183,1.73044c-0.3675,0.18376 -0.60719,0.46452 -0.72701,0.8397z" fill="#222"/>
    <path stroke="null" id="svg_35" d="m94.87149,8.1558c-0.3462,0.20163 -0.56458,0.49004 -0.65512,0.86522c-0.09055,0.3905 -0.02929,0.75037 0.18109,1.08216s0.51133,0.54874 0.90279,0.64828c10.1862,2.32257 19.34179,5.66095 27.4668,10.01513c0.36217,0.18632 0.73766,0.22971 1.12912,0.13016c0.39148,-0.11485 0.6924,-0.34711 0.90279,-0.69167c0.1944,-0.34711 0.23965,-0.69933 0.13582,-1.05919c-0.11987,-0.37519 -0.36217,-0.65594 -0.7217,-0.84481c-8.33537,-4.46904 -17.73862,-7.9095 -28.21245,-10.31885c-0.39146,-0.08678 -0.76962,-0.02807 -1.12914,0.17356z" fill="#222"/>
    <path stroke="null" id="svg_36" d="m87.19655,6.12163c0.39147,0.09954 0.76697,0.05105 1.12915,-0.15058c1.29423,-0.6789 2.16772,-1.85295 2.61778,-3.5247c0.09055,-0.37518 0.03727,-0.73506 -0.15713,-1.08217c-0.21038,-0.34711 -0.51131,-0.5615 -0.90277,-0.64828c-0.39148,-0.10209 -0.75896,-0.05105 -1.10517,0.15058c-0.36218,0.20163 -0.59386,0.49004 -0.70038,0.86522c-0.22638,0.82183 -0.63914,1.42162 -1.241,1.79425c-0.34618,0.20163 -0.57256,0.49004 -0.67641,0.86522c-0.11984,0.35987 -0.07456,0.71463 0.13581,1.05919s0.50866,0.57171 0.90012,0.67125z" fill="#222"/>
    <path stroke="null" id="svg_37" d="m70.29412,2.66074c2.48196,1.35526 5.30482,2.17709 8.4632,2.4655c1.78957,0.34711 3.48329,1.30421 5.07846,2.87641c0.27162,0.2731 0.61781,0.41858 1.03859,0.43134c0.40744,0 0.75365,-0.13017 1.03858,-0.3905c0.28496,-0.27309 0.43675,-0.60489 0.45007,-0.99539c0.01598,-0.40326 -0.11984,-0.74271 -0.40744,-1.01581c-2.10649,-2.06224 -4.3408,-3.29499 -6.70294,-3.69825c-0.04526,0 -0.09055,0 -0.1358,0c-2.73763,-0.27309 -5.19031,-0.98773 -7.35804,-2.14136c-0.36217,-0.20163 -0.73766,-0.24502 -1.12914,-0.13017c-0.39146,0.10209 -0.68441,0.31648 -0.88147,0.64828c-0.2104,0.34711 -0.25566,0.70698 -0.13581,1.08216c0.0932,0.37774 0.31956,0.66614 0.68174,0.86778z" fill="#222"/>
    </g>
</svg>