<svg height="1024" width="1024" xmlns="http://www.w3.org/2000/svg" xmlns:xlink="http://www.w3.org/1999/xlink" version="1.1" x="0px" y="0px" viewBox="0 0 150 150"><path d="M119.3,117.6L139.6,72c1.7-3.7,0-8.1-3.8-9.8l0,0c-3.7-1.7-8.1,0-9.8,3.8l-20.9,46.9c-3-0.8-5.6-1.4-7.4-1.8v-2.1 c0-1.1-0.5-2.2-1.3-2.9c0-0.1,0-0.1,0-0.2v-3.1c0-1.4-0.7-2.7-1.9-3.4l-1.2-2.1c3.5-1.9,6.6-4.7,9.3-8.4c6-8.4,9.9-22.4,9.9-34.6 c0-13.6-1.5-26.1-8.7-34.6C97.4,11.7,85.7,7.1,76.1,7.1c-0.5,0-1,0-1.5,0.1c-0.5,0-1-0.1-1.5-0.1c-9.6,0-21.3,4.6-27.8,12.4 c-7.2,8.6-8.7,21-8.7,34.6c0,12.2,3.9,26.3,9.9,34.6c2.7,3.8,5.8,6.5,9.3,8.4l-1.2,2.1c-1.1,0.7-1.9,2-1.9,3.4v3.1 c0,0.1,0,0.1,0,0.2c-0.8,0.7-1.3,1.8-1.3,2.9v2.1c-1.8,0.4-4.4,1-7.4,1.8L23,65.9c-1.7-3.7-6.1-5.4-9.8-3.8l0,0 c-3.7,1.7-5.4,6.1-3.8,9.8l20.4,45.6C16,123.3,1.3,132.7,0,147.5c0,0,0,2.5,2.5,2.5h71.8h0.6h71.8c2.5,0,2.5-2.5,2.5-2.5 C147.8,132.7,133.1,123.3,119.3,117.6z M64,56.6l-10,1.2c-3.5,0-6.4-2.9-6.4-6.4v-5.8c0-3.5,2.9-6.4,6.4-6.4l16.8,1.1 c1.9,0.1,3.8,0.1,5.7,0l19.3-1.1c3.5,0,6.4,2.9,6.4,6.4v5.8c0,3.5-2.9,6.4-6.4,6.4l-10-1.2C78.5,55.8,71.2,55.8,64,56.6z"></path></svg>